<?xml version="1.0" standalone="no"?>
<!DOCTYPE svg PUBLIC "-//W3C//DTD SVG 20010904//EN"
 "http://www.w3.org/TR/2001/REC-SVG-20010904/DTD/svg10.dtd">
<svg version="1.0" xmlns="http://www.w3.org/2000/svg"
 width="640.000000pt" height="640.000000pt" viewBox="0 0 640.000000 640.000000"
 preserveAspectRatio="xMidYMid meet">
<metadata>
Created by potrace 1.14, written by Peter Selinger 2001-2017
</metadata>
<g transform="translate(0.000000,640.000000) scale(0.100000,-0.100000)"
fill="#000000" stroke="none">
<path d="M1215 5744 c-65 -34 -86 -67 -100 -164 -4 -25 -9 -54 -11 -65 -2 -11
-7 -33 -9 -50 -21 -117 -25 -145 -30 -180 -2 -22 -7 -51 -10 -65 -3 -14 -7
-41 -10 -60 -3 -19 -7 -46 -10 -60 -3 -14 -8 -45 -11 -69 -3 -25 -7 -48 -10
-52 -2 -4 -6 -24 -9 -46 -6 -52 -24 -146 -29 -150 -4 -5 -146 -32 -199 -38
-23 -3 -64 -9 -92 -15 -27 -5 -66 -12 -85 -15 -19 -3 -46 -7 -60 -10 -14 -2
-45 -7 -70 -11 -24 -3 -47 -7 -50 -9 -3 -1 -27 -6 -55 -9 -27 -4 -57 -9 -65
-11 -8 -3 -31 -7 -50 -9 -138 -19 -170 -29 -201 -64 -60 -67 -63 -144 -8 -221
18 -25 37 -47 41 -49 4 -2 8 -8 8 -13 0 -5 17 -34 38 -63 258 -368 380 -543
386 -554 8 -13 -21 -63 -99 -168 -16 -23 -36 -50 -42 -60 -28 -41 -272 -390
-280 -399 -23 -27 -81 -123 -88 -143 -4 -13 -4 -44 0 -69 10 -67 63 -116 144
-133 35 -7 73 -14 85 -15 11 -1 35 -4 51 -8 28 -6 62 -11 140 -22 17 -3 41 -7
55 -10 14 -3 41 -8 60 -11 39 -5 73 -11 110 -19 14 -3 41 -7 60 -9 20 -3 47
-7 60 -10 14 -3 41 -8 60 -11 19 -2 62 -9 95 -15 33 -5 60 -10 60 -10 1 0 1
-8 2 -17 0 -10 3 -36 7 -58 7 -47 20 -128 21 -135 2 -10 17 -96 20 -120 2 -14
11 -68 20 -120 9 -52 18 -106 20 -120 8 -51 47 -276 50 -290 2 -8 4 -18 4 -22
2 -13 65 -75 86 -83 56 -22 145 -4 191 39 7 6 55 40 108 76 95 64 103 74 112
127 12 77 59 215 105 308 42 83 107 188 121 193 4 2 8 8 8 13 0 13 49 67 138
155 69 69 238 194 261 194 6 0 11 5 11 10 0 7 -15 7 -42 3 -66 -12 -277 -8
-338 6 -131 31 -232 72 -330 136 -61 39 -154 117 -189 158 -9 10 -24 28 -35
40 -78 90 -171 279 -191 389 -3 12 -9 46 -14 73 -12 64 -7 301 8 338 6 15 9
27 7 27 -8 0 54 181 70 201 5 8 20 34 34 59 69 130 222 283 350 351 25 13 51
28 59 33 20 16 201 78 201 70 0 -2 12 1 28 7 36 15 273 20 337 8 28 -5 61 -11
74 -14 50 -9 159 -50 221 -82 234 -124 411 -340 480 -584 28 -101 32 -126 39
-260 1 -12 17 -8 79 22 86 41 204 83 272 98 61 13 193 32 218 31 130 -4 138
-2 169 43 15 23 32 47 36 52 5 6 39 55 77 110 38 55 77 111 88 125 10 14 54
77 98 140 76 111 79 117 79 172 -1 61 -17 94 -66 130 -21 16 -116 38 -269 62
-19 3 -91 15 -160 26 -69 12 -138 23 -155 26 -16 3 -69 12 -117 20 -48 8 -106
17 -128 20 -23 3 -48 7 -55 8 -8 1 -17 4 -20 7 -5 6 -22 86 -31 149 -2 19 -7
46 -10 60 -3 14 -8 43 -10 65 -3 22 -7 47 -9 55 -3 8 -7 33 -10 55 -3 22 -11
65 -16 95 -6 30 -12 66 -14 80 -2 14 -9 54 -15 90 -6 36 -13 81 -15 100 -3 19
-7 46 -10 60 -3 14 -7 36 -10 50 -3 14 -13 36 -23 50 -60 81 -151 90 -248 25
-32 -22 -63 -44 -69 -48 -5 -5 -102 -73 -215 -152 -113 -79 -244 -171 -291
-204 -47 -33 -93 -63 -102 -67 -10 -3 -38 11 -74 38 -32 24 -66 48 -75 53 -9
6 -144 100 -300 209 -323 227 -348 239 -423 200z"/>
<path d="M1978 4314 c-2 -1 -17 -5 -34 -8 -149 -27 -336 -162 -414 -301 -19
-33 -33 -61 -31 -63 1 -2 -4 -13 -12 -25 -36 -57 -57 -265 -35 -358 5 -24 11
-52 13 -62 3 -11 23 -57 45 -104 84 -172 258 -304 450 -341 39 -8 214 -8 245
0 136 33 230 83 321 173 39 38 86 97 104 130 19 33 33 60 30 60 -2 0 3 11 10
25 8 14 15 27 15 30 1 3 7 25 15 50 19 66 21 227 4 297 -8 32 -16 63 -17 69
-7 29 -79 164 -88 164 -5 0 -9 6 -9 14 0 24 -139 143 -209 180 -57 29 -85 40
-171 63 -19 6 -228 12 -232 7z"/>
<path d="M3500 3499 c-95 -19 -174 -44 -207 -65 -12 -8 -27 -14 -34 -14 -6 0
-48 -24 -94 -54 -277 -181 -438 -471 -444 -800 -1 -16 -4 -27 -7 -23 -3 3 -23
-1 -45 -8 -21 -8 -39 -12 -39 -10 0 9 -121 -39 -195 -77 -150 -79 -308 -229
-381 -363 -6 -11 -20 -36 -30 -55 -22 -39 -70 -169 -79 -215 -3 -16 -8 -41
-11 -55 -9 -41 -12 -245 -3 -297 13 -82 16 -96 37 -158 38 -113 103 -237 148
-282 8 -8 14 -18 14 -22 0 -12 123 -130 185 -176 94 -70 256 -144 352 -161 15
-3 44 -9 63 -14 40 -11 2993 -9 3025 2 11 4 43 14 72 21 28 8 66 22 84 31 18
9 36 16 41 16 5 0 21 8 36 18 15 11 46 31 68 46 73 47 170 150 222 231 29 48
74 148 91 205 20 69 24 97 26 213 2 114 -1 137 -37 262 -14 47 -86 188 -99
193 -5 2 -9 8 -9 13 0 22 -107 132 -180 185 -80 57 -135 85 -225 114 l-80 27
0 46 c0 26 -2 47 -5 47 -3 0 -4 24 -4 54 2 56 -15 145 -42 226 -22 66 -67 160
-76 160 -4 0 -8 6 -8 14 0 20 -99 143 -156 195 -88 78 -261 181 -306 181 -8 0
-18 3 -22 7 -3 4 -12 8 -19 9 -7 1 -32 7 -57 14 -25 7 -100 14 -168 15 -140 3
-241 -15 -358 -62 l-70 -29 -32 41 c-17 22 -53 63 -79 90 -50 51 -185 155
-201 155 -5 0 -15 7 -22 15 -7 9 -15 13 -17 11 -3 -3 -19 3 -36 13 -34 19
-129 51 -212 72 -78 19 -276 18 -375 -2z m325 -479 c86 -37 103 -45 135 -69
93 -69 168 -180 187 -275 12 -65 78 -147 138 -172 106 -44 200 -17 303 86 98
97 176 130 303 125 89 -3 105 -6 173 -40 88 -43 182 -156 200 -240 3 -16 9
-41 12 -55 7 -36 7 -247 -1 -259 -3 -6 -3 -11 2 -11 4 0 8 -38 7 -85 -1 -117
27 -179 106 -228 55 -35 89 -43 173 -41 43 1 99 -4 126 -11 49 -13 121 -56
153 -91 32 -36 68 -121 73 -175 4 -30 8 -59 10 -66 2 -6 1 -14 -3 -17 -3 -4
-7 -17 -9 -29 -13 -87 -112 -195 -208 -227 -58 -19 -83 -20 -280 -19 -96 1
-99 1 -130 -1 -11 -1 -85 -1 -165 -1 -80 0 -152 0 -160 0 -13 0 -83 0 -342 1
-43 0 -84 1 -90 1 -7 1 -33 1 -58 0 -25 -1 -93 -2 -152 -2 -60 0 -114 0 -120
-1 -7 0 -51 0 -98 1 -47 0 -92 0 -100 0 -13 0 -70 0 -342 1 -43 0 -84 1 -90 1
-7 1 -33 1 -58 0 -25 -1 -93 -2 -152 -2 -60 0 -114 0 -120 -1 -7 0 -51 0 -98
1 -47 0 -92 0 -100 0 -96 -3 -246 6 -289 17 -162 43 -313 194 -347 349 -14 64
-10 190 7 247 32 107 118 222 209 279 42 27 152 61 210 65 30 3 61 6 68 9 6 2
12 1 12 -4 0 -14 82 0 124 21 51 25 94 71 117 123 16 37 21 74 35 280 8 119
10 136 24 185 15 57 62 146 99 186 63 69 180 139 266 157 40 9 211 -1 240 -13z"/>
</g>
</svg>
