<svg width="16" height="20" viewBox="0 0 16 20" xmlns="http://www.w3.org/2000/svg">
	<path d="M7.99995 9.925C8.53329 9.925 8.99162 9.73734 9.37495 9.362C9.75828 8.98734 9.94995 8.53334 9.94995 8C9.94995 7.46667 9.75828 7.00834 9.37495 6.625C8.99162 6.24167 8.53329 6.05 7.99995 6.05C7.46662 6.05 7.01262 6.24167 6.63795 6.625C6.26262 7.00834 6.07495 7.46667 6.07495 8C6.07495 8.53334 6.26262 8.98734 6.63795 9.362C7.01262 9.73734 7.46662 9.925 7.99995 9.925ZM7.99995 17.425C10.05 15.5417 11.575 13.8333 12.575 12.3C13.575 10.7667 14.075 9.4 14.075 8.2C14.075 6.35 13.4873 4.84167 12.312 3.675C11.1373 2.50834 9.69995 1.925 7.99995 1.925C6.29995 1.925 4.86662 2.50834 3.69995 3.675C2.53328 4.84167 1.94995 6.35 1.94995 8.2C1.94995 9.4 2.44595 10.7667 3.43795 12.3C4.42929 13.8333 5.94995 15.5417 7.99995 17.425ZM7.99995 19.55C7.88328 19.55 7.76262 19.5293 7.63795 19.488C7.51262 19.446 7.39995 19.3833 7.29995 19.3C4.86662 17.15 3.05428 15.1583 1.86295 13.325C0.670951 11.4917 0.0749512 9.78334 0.0749512 8.2C0.0749512 5.71667 0.870951 3.73734 2.46295 2.262C4.05428 0.787336 5.89995 0.0500031 7.99995 0.0500031C10.1 0.0500031 11.95 0.787336 13.55 2.262C15.15 3.73734 15.95 5.71667 15.95 8.2C15.95 9.78334 15.35 11.4917 14.15 13.325C12.95 15.1583 11.1333 17.15 8.69995 19.3C8.61662 19.3833 8.51262 19.446 8.38795 19.488C8.26262 19.5293 8.13328 19.55 7.99995 19.55Z" />
</svg>
