<svg width="22" height="22" viewBox="0 0 22 22" fill="none" xmlns="http://www.w3.org/2000/svg">
<path d="M11.0251 21.65C10.7584 21.65 10.5334 21.5583 10.3501 21.375C10.1668 21.1916 10.0751 20.9666 10.0751 20.7V19.725C8.0251 19.5083 6.26676 18.6666 4.8001 17.2C3.33343 15.7333 2.49176 13.975 2.2751 11.925H1.3001C1.03343 11.925 0.808431 11.8333 0.625098 11.65C0.441764 11.4666 0.350098 11.2416 0.350098 10.975C0.350098 10.725 0.441764 10.5083 0.625098 10.325C0.808431 10.1416 1.03343 10.05 1.3001 10.05H2.2751C2.49176 7.98331 3.33343 6.22498 4.8001 4.77498C6.26676 3.32498 8.0251 2.49164 10.0751 2.27498V1.27498C10.0751 1.02498 10.1668 0.808309 10.3501 0.624976C10.5334 0.441642 10.7584 0.349976 11.0251 0.349976C11.2751 0.349976 11.4918 0.441642 11.6751 0.624976C11.8584 0.808309 11.9501 1.02498 11.9501 1.27498V2.27498C14.0168 2.49164 15.7751 3.32498 17.2251 4.77498C18.6751 6.22498 19.5084 7.98331 19.7251 10.05H20.7251C20.9751 10.05 21.1918 10.1416 21.3751 10.325C21.5584 10.5083 21.6501 10.725 21.6501 10.975C21.6501 11.2416 21.5584 11.4666 21.3751 11.65C21.1918 11.8333 20.9751 11.925 20.7251 11.925H19.7251C19.5084 13.975 18.6751 15.7333 17.2251 17.2C15.7751 18.6666 14.0168 19.5083 11.9501 19.725V20.7C11.9501 20.9666 11.8584 21.1916 11.6751 21.375C11.4918 21.5583 11.2751 21.65 11.0251 21.65ZM11.0251 17.9C12.9418 17.9 14.5668 17.2206 15.9001 15.862C17.2334 14.504 17.9001 12.875 17.9001 10.975C17.9001 9.05831 17.2334 7.43331 15.9001 6.09998C14.5668 4.76664 12.9418 4.09998 11.0251 4.09998C9.1251 4.09998 7.4961 4.76664 6.1381 6.09998C4.77943 7.43331 4.1001 9.05831 4.1001 10.975C4.1001 12.875 4.77943 14.504 6.1381 15.862C7.4961 17.2206 9.1251 17.9 11.0251 17.9ZM11.0001 14.85C9.93343 14.85 9.0251 14.475 8.2751 13.725C7.5251 12.975 7.1501 12.0666 7.1501 11C7.1501 9.93331 7.5251 9.02497 8.2751 8.27498C9.0251 7.52498 9.93343 7.14998 11.0001 7.14998C12.0668 7.14998 12.9751 7.52498 13.7251 8.27498C14.4751 9.02497 14.8501 9.93331 14.8501 11C14.8501 12.0666 14.4751 12.975 13.7251 13.725C12.9751 14.475 12.0668 14.85 11.0001 14.85ZM11.0001 12.975C11.5501 12.975 12.0168 12.779 12.4001 12.387C12.7834 11.9956 12.9751 11.5333 12.9751 11C12.9751 10.45 12.7834 9.98331 12.4001 9.59998C12.0168 9.21664 11.5501 9.02497 11.0001 9.02497C10.4668 9.02497 10.0044 9.21664 9.6131 9.59998C9.2211 9.98331 9.0251 10.45 9.0251 11C9.0251 11.5333 9.2211 11.9956 9.6131 12.387C10.0044 12.779 10.4668 12.975 11.0001 12.975Z" fill="#100E17"/>
</svg>
