<svg width="18" height="18" viewBox="0 0 18 18" fill="none" xmlns="http://www.w3.org/2000/svg">
<path d="M15.8251 17.125L10.2751 11.575C9.79176 11.975 9.22943 12.2873 8.5881 12.512C7.9461 12.7373 7.26676 12.85 6.5501 12.85C4.78343 12.85 3.28743 12.2373 2.0621 11.012C0.837431 9.78728 0.225098 8.29162 0.225098 6.52495C0.225098 4.75828 0.833431 3.26228 2.0501 2.03695C3.26676 0.812285 4.75843 0.199951 6.5251 0.199951C8.30843 0.199951 9.81276 0.812285 11.0381 2.03695C12.2628 3.26228 12.8751 4.75828 12.8751 6.52495C12.8751 7.24162 12.7628 7.92062 12.5381 8.56195C12.3128 9.20395 12.0001 9.77495 11.6001 10.275L17.1751 15.825C17.3418 15.9916 17.4251 16.2 17.4251 16.45C17.4251 16.7 17.3334 16.925 17.1501 17.125C16.9668 17.3083 16.7461 17.4 16.4881 17.4C16.2294 17.4 16.0084 17.3083 15.8251 17.125ZM6.5501 10.975C7.78343 10.975 8.83343 10.5416 9.7001 9.67495C10.5668 8.80828 11.0001 7.75828 11.0001 6.52495C11.0001 5.27495 10.5668 4.22062 9.7001 3.36195C8.83343 2.50395 7.78343 2.07495 6.5501 2.07495C5.3001 2.07495 4.2461 2.50395 3.3881 3.36195C2.52943 4.22062 2.1001 5.27495 2.1001 6.52495C2.1001 7.75828 2.52943 8.80828 3.3881 9.67495C4.2461 10.5416 5.3001 10.975 6.5501 10.975Z" fill="#EAE6F2"/>
</svg>
